<?xml version="1.0" encoding="UTF-8"?>
<svg id="Layer_2" data-name="Layer 2" xmlns="http://www.w3.org/2000/svg" viewBox="0 0 165.43 165.43">
  <defs>
    <style>
      .cls-1 {
        fill: #572b3e;
      }

      .cls-2 {
        fill: #ba1e5d;
      }

      .cls-3 {
        fill: #f8efed;
      }
    </style>
  </defs>
  <g id="Layer_1-2" data-name="Layer 1">
    <rect class="cls-3" width="165.43" height="165.43" rx="18.54" ry="18.54"/>
    <g>
      <g>
        <path class="cls-2" d="M32.17,57.2l.35,7.92h-1.76c-.92-2.61-1.98-4.43-3.16-5.46-1.18-1.03-2.61-1.55-4.28-1.55-1.42,0-2.59.45-3.52,1.34-.92.89-1.39,1.93-1.39,3.1,0,1.45.48,2.45,1.45,2.99.97.54,2.63,1.06,4.99,1.57,3.62.78,6.05,1.95,7.29,3.51,1.24,1.56,1.86,3.54,1.86,5.94,0,2.83-.82,5.27-2.45,7.32-1.63,2.05-3.92,3.08-6.87,3.08-2.1,0-3.99-.66-5.67-1.98-.82.65-1.56,1.28-2.22,1.89h-1.47v-8.6h1.72c1.29,4.84,3.8,7.26,7.52,7.26,1.96,0,3.47-.58,4.53-1.74,1.06-1.16,1.58-2.46,1.58-3.89,0-.81-.23-1.53-.69-2.18-.46-.64-1-1.16-1.62-1.54-.62-.38-2.32-.86-5.1-1.44-2.78-.58-4.83-1.65-6.12-3.22-1.3-1.57-1.95-3.52-1.95-5.87,0-2.52.79-4.65,2.38-6.39,1.59-1.74,3.57-2.61,5.94-2.61,1.8,0,3.59.63,5.38,1.89.57-.34,1.19-.78,1.84-1.34h1.43Z"/>
        <path class="cls-2" d="M59.38,60.61c-2.68-2.64-5.71-3.96-9.09-3.96-3.65,0-6.78,1.41-9.39,4.21-2.61,2.8-3.92,6.41-3.92,10.83s1.24,7.97,3.72,10.88c2.48,2.92,5.69,4.38,9.63,4.38,3.65,0,6.74-1.38,9.27-4.12,2.53-2.75,3.79-6.4,3.79-10.96,0-4.87-1.33-8.62-4.01-11.26ZM54.88,81.08c-.2,1.57-.72,2.7-1.53,3.4-.82.7-1.86,1.04-3.16,1.04-1.55,0-2.69-.43-3.42-1.29-.73-.87-1.17-2.03-1.34-3.49s-.25-4.45-.25-8.96.1-7.63.3-9.19c.2-1.57.7-2.71,1.5-3.42.8-.71,1.88-1.06,3.22-1.06,1.6,0,2.75.44,3.44,1.32.7.88,1.13,2.04,1.3,3.47.17,1.43.25,4.41.25,8.92s-.1,7.69-.31,9.26Z"/>
        <path class="cls-2" d="M76.63,58.5v12.42h.7c3.42,0,5.29-1.74,5.63-5.21h1.63v12.14h-1.43c-.1-1.5-.58-2.78-1.42-3.87-.84-1.08-2.31-1.63-4.41-1.63h-.7v12.77h4.22v1.43h-15.17v-1.43h3.74v-26.63h-3.74v-1.43h24.71l.24,8.99h-1.54c-1.03-5.04-3.64-7.56-7.83-7.56h-4.64Z"/>
        <polygon class="cls-2" points="103.47 58.5 103.47 85.12 107.47 85.12 107.47 86.55 92.39 86.55 92.39 85.12 96.26 85.12 96.26 58.5 92.39 58.5 92.39 57.07 107.47 57.07 107.47 58.5 103.47 58.5"/>
        <path class="cls-2" d="M120.53,58.5v12.47h.95c3.06,0,4.84-1.74,5.32-5.21h1.43v12.05h-1.43c-.25-3.61-2.02-5.41-5.32-5.41h-.95v12.73h5.04c4.44,0,7.34-2.75,8.71-8.25h1.52l-.62,9.67h-25.59v-1.43h3.74v-26.63h-3.74v-1.43h24.69l.4,8.22h-1.43c-.93-2.78-2.07-4.61-3.45-5.49-1.37-.87-3.18-1.31-5.43-1.31h-3.83Z"/>
      </g>
      <g>
        <path class="cls-1" d="M87.09,79.79h.02c.68-.07,1.47.27,2.36,1.02.47.47.72.88.75,1.21v.08c.03.16-.06.45-.25.87-4.23,11-6.57,17.07-7.01,18.22-.89,2.27-1.47,3.87-1.74,4.8l-.08.31h.03c.7-.56,1.63-1.49,2.78-2.77.49-.57,1.09-1.31,1.79-2.21l.09-.03h.09c.29-.04.62.12.99.48.14.15.22.31.24.46,0,.07-.16.32-.5.73-1.06,1.34-1.83,2.22-2.29,2.67-1.87,1.98-3.4,3.02-4.59,3.15-1.01.11-1.82-.43-2.42-1.6-.11-.24-.18-.52-.21-.84-.12-1.15.44-3.22,1.67-6.2.09-.27,1.97-5.17,5.65-14.73,1.22-3.19,1.91-4.96,2.05-5.31.13-.18.32-.28.58-.31Z"/>
        <path class="cls-1" d="M90.28,90.02c.47-.05,1.05.12,1.71.53.39.26.71.53.95.79.29.38.45.68.47.91v.08c.03.18-.09.55-.35,1.12-2.25,5.86-3.56,9.29-3.94,10.31-.25.75-.37,1.16-.36,1.23.47-.37,1.41-1.41,2.82-3.11,1.35-1.74,2.46-3.33,3.34-4.77.77-1.22,1.47-2.44,2.09-3.65.98-2.58,1.51-3.93,1.57-4.06.13-.17.32-.27.58-.3.56-.06,1.23.19,2.02.74.68.56,1.05,1.04,1.09,1.47v.11c.03.16-.06.45-.26.89-2.42,6.27-3.81,9.93-4.2,10.98-.14.44-.27.88-.38,1.31h.03c.7-.57,1.63-1.49,2.78-2.77.5-.6,1.1-1.33,1.78-2.21l.11-.03h.09c.28-.04.61.13.99.48.14.15.22.31.24.46,0,.07-.16.32-.51.73-1.06,1.33-1.82,2.22-2.29,2.67-1.87,1.98-3.41,3.02-4.61,3.15-1.01.11-1.82-.43-2.42-1.61-.11-.24-.18-.52-.21-.83v-.03c-.08-.67.09-1.63.47-2.9-1.22,1.57-2.1,2.65-2.67,3.24-1.51,1.61-2.57,2.45-3.2,2.51-.01.01-.11.03-.29.06-.96.1-1.79-.26-2.5-1.09-.3-.44-.49-.91-.54-1.42-.11-1.08.44-3.07,1.65-5.98.1-.28,1.21-3.18,3.34-8.7.14-.18.33-.28.58-.31Z"/>
        <path class="cls-1" d="M107.38,103.9c-1.55,1.49-2.83,2.29-3.86,2.39-1.01.1-1.82-.43-2.42-1.6-.11-.24-.18-.52-.22-.84-.12-1.14.44-3.22,1.67-6.2.09-.26,1.98-5.17,5.67-14.73,1.61-4.27,2.49-6.58,2.63-6.93.13-.18.32-.28.56-.31h.01c.68-.07,1.48.27,2.38,1.02.46.47.7.87.74,1.21v.08c.02.16-.06.45-.23.87-4.63,12.09-7.16,18.7-7.59,19.85-.91,2.27-1.48,3.87-1.74,4.8l-.08.31h.03c.69-.56,1.61-1.49,2.77-2.77.38-.45.83-.99,1.33-1.63.68-1.77,1.62-4.22,2.82-7.33l5.03-13.07c.13-.18.32-.28.58-.31h.02c.65-.07,1.41.25,2.26.94.53.49.82.91.85,1.27v.11c.03.15-.05.41-.22.8l-3.4,8.84h.02c1.82-1.65,3.27-2.54,4.36-2.65,1.03-.11,1.96.27,2.77,1.14.51.62.8,1.18.85,1.7.07.64-.14,1.49-.61,2.56-1.7,4.48-2.65,7.03-2.86,7.65-.15.53-.26.94-.31,1.24.71-.56,1.68-1.53,2.91-2.91.78-.95,1.31-1.62,1.61-2.02l.11-.04h.08c.35-.04.72.15,1.11.58.08.13.12.23.14.3v.06c.01.08-.13.3-.43.64-.79,1.01-1.47,1.81-2.02,2.4-1.7,1.8-2.99,2.84-3.87,3.11-.1.04-.24.07-.42.09h-.06c-.77.09-1.58-.35-2.44-1.29-.36-.49-.56-1-.61-1.5-.11-1.04.38-2.89,1.48-5.54,1.28-3.37,2.04-5.41,2.3-6.13l.03-.34s-.02,0-.02-.01c-1.11.54-2.46,1.68-4.05,3.4-.98,1.15-1.63,1.97-1.95,2.48-.2.55-1.54,4.03-4.01,10.42-.14.17-.33.27-.56.3-.67.07-1.45-.26-2.34-1-.5-.5-.77-.92-.8-1.26,0-.03,0-.07,0-.11Z"/>
        <path class="cls-1" d="M150.08,95.26c-.38-.41-.75-.6-1.09-.56h-.11l-.08.04c-.56.75-1.13,1.43-1.65,2.06-1.24,1.39-2.21,2.36-2.89,2.89,0-.19.11-.49.23-.83.23-.75.79-2.29,1.65-4.54,1.13-2.59,1.61-4.5,1.5-5.74-.11-1.05-.71-2.03-1.76-2.96-.71-.49-1.28-.83-1.76-.98.86-2.4,1.28-4.2,1.13-5.4-.08-.9-.41-1.58-.98-2.03-.86-.53-1.69-.75-2.48-.64-1.13.11-2.14.98-3.08,2.63-.71,1.46-1.05,2.7-.94,3.68v.19c.15,1.39.86,2.4,2.18,3.08.71.26,1.2.41,1.43.41-.49,1.01-1.05,2.14-1.73,3.38-.07.11-.15.26-.19.38-.07-.45-.15-.9-.3-1.39-.38-1.01-.83-1.84-1.46-2.36-1.01-.9-2.21-1.28-3.49-1.13-1.24.11-2.48.79-3.79,1.91-.34.26-.75.75-1.31,1.46h-.49c-.11.04-.23.08-.38.15-.45.6-.83,1.13-1.09,1.69-1.24,2.51-1.8,4.84-1.69,7.05,0,.23,0,.41.04.64.04.6.15,1.13.34,1.61l.04.04c.23.75.56,1.35,1.01,1.88,1.09,1.24,2.25,1.8,3.6,1.65l.3-.04c1.2-.11,2.51-.83,3.98-2.06.34-.3.94-.9,1.69-1.84.71-1.01,1.2-1.88,1.58-2.66.45-.94.79-1.8,1.05-2.63.26-.45.49-.83.71-1.16,1.39-2.29,2.51-4.39,3.34-6.23.26.04.49.08.71.15.04.41-.04.98-.23,1.69-.23.83-.79,2.4-1.69,4.69-1.28,3.04-1.8,5.18-1.69,6.38.04.26.11.56.26.86.71,1.09,1.5,1.58,2.4,1.5l.15-.04c1.09-.11,2.7-1.28,4.77-3.49.41-.41,1.13-1.24,2.06-2.44.23-.3.38-.49.34-.56v-.08c0-.07-.07-.15-.15-.3ZM134.06,99.09c-1.5,1.65-2.89,2.55-4.13,2.66-.34-.38-.56-.98-.64-1.76l-.04-.26c-.08-.83,0-1.8.23-2.93,1.24,1.31,2.74,2.03,4.62,2.21l-.04.07ZM137.55,89.78c.15,1.35-.15,2.96-.86,4.84-.9,1.39-1.69,2.29-2.29,2.7-1.05.6-1.88.3-2.48-.86l-.04-.08c-.23-.53-.38-.98-.38-1.39-.19-1.5.45-3,1.84-4.58,1.31-1.2,2.36-1.88,3.34-1.99.15,0,.38.04.6.11.08,0,.15.38.26,1.09v.15ZM143.44,81.04c-.23.9-.53,1.91-.98,3.04l-.86-.19c0-.11.04-.34.11-.75.11-.45.34-1.01.64-1.61.38-.68.83-1.24,1.28-1.58-.04.3-.07.68-.19,1.09Z"/>
      </g>
      <path class="cls-1" d="M120.35,82.06c.49-.05.93.04,1.33.29.58.31.98.72,1.21,1.23.02.09.03.16.04.22.03.27-.09.44-.37.53,0,.01-.04.02-.09.02l-29.42,3.07c-.49.05-1.08-.2-1.75-.74-.38-.37-.59-.7-.62-1.02-.02-.23.08-.41.32-.52.09-.02.21-.03.34-.05l21.45-2.24,7.56-.79Z"/>
    </g>
  </g>
</svg>